<svg xmlns="http://www.w3.org/2000/svg" width="40" height="40" viewBox="0 0 40 40">
  <!-- Palm -->
  <path d="M10 38 L10 20 C10 20 9 18 11 17 C13 16 14 18 14 18 L14 12 C14 12 14 10 16 10 C18 10 18 12 18 12 L18 10 C18 10 18 8 20 8 C22 8 22 10 22 10 L22 11 C22 11 22 9 24 9 C26 9 26 11 26 14 L26 22 L27 19 C27 19 28 17 30 18 C32 19 31 22 31 22 L28 30 C28 30 26 38 20 38 Z"
    fill="#FDBCB4" stroke="#c47a5a" stroke-width="1.2" stroke-linejoin="round"/>
  <!-- Finger creases -->
  <path d="M14 18 Q16 19 18 18" fill="none" stroke="#c47a5a" stroke-width="0.8"/>
  <path d="M18 14 Q20 15 22 14" fill="none" stroke="#c47a5a" stroke-width="0.8"/>
  <path d="M22 15 Q24 16 26 15" fill="none" stroke="#c47a5a" stroke-width="0.8"/>
  <!-- Fingernails -->
  <ellipse cx="16" cy="10.5" rx="2" ry="1.2" fill="#f8d0c8" stroke="#c47a5a" stroke-width="0.6"/>
  <ellipse cx="20" cy="8.5" rx="2" ry="1.2" fill="#f8d0c8" stroke="#c47a5a" stroke-width="0.6"/>
  <ellipse cx="24" cy="9.5" rx="2" ry="1.2" fill="#f8d0c8" stroke="#c47a5a" stroke-width="0.6"/>
  <!-- Shadow -->
  <path d="M10 38 L10 22 C10 22 9.5 20 11 19" fill="none" stroke="#c47a5a" stroke-width="0.5" opacity="0.4"/>
</svg>
